<?xml version="1.0" standalone="no"?>
<!DOCTYPE svg PUBLIC "-//W3C//DTD SVG 20010904//EN"
 "http://www.w3.org/TR/2001/REC-SVG-20010904/DTD/svg10.dtd">
<svg version="1.0" xmlns="http://www.w3.org/2000/svg"
 width="194.000000pt" height="237.000000pt" viewBox="0 0 194.000000 237.000000"
 preserveAspectRatio="xMidYMid meet">

<g transform="translate(0.000000,237.000000) scale(0.100000,-0.100000)"
fill="#000000" stroke="none">
<path d="M765 2355 c-95 -21 -182 -60 -281 -126 -203 -136 -369 -389 -432
-659 -6 -25 -14 -56 -17 -70 -15 -61 -35 -253 -35 -336 0 -213 50 -449 132
-624 97 -205 278 -389 470 -478 42 -19 180 -62 200 -62 5 0 -8 23 -28 50 -45
63 -72 133 -90 235 -18 102 -18 153 2 284 29 199 88 345 261 646 155 269 225
497 225 730 0 328 -141 469 -407 410z m-191 -207 c-184 -162 -286 -305 -402
-568 -21 -49 -13 12 13 94 51 160 158 326 272 420 54 45 152 105 172 106 3 0
-22 -23 -55 -52z m-33 -567 c33 -33 36 -58 14 -102 -42 -81 -165 -46 -165 46
0 25 8 40 31 59 41 35 83 34 120 -3z m-193 -197 c49 -55 12 -144 -60 -144 -93
0 -131 114 -55 161 40 25 84 18 115 -17z m361 25 c33 -12 61 -52 61 -89 0 -36
-53 -80 -95 -80 -98 0 -118 139 -25 173 22 8 24 8 59 -4z m-161 -225 c29 -33
28 -76 -2 -111 -19 -22 -32 -28 -66 -28 -34 0 -47 6 -66 28 -28 33 -31 73 -8
105 34 48 102 51 142 6z"/>
<path d="M1149 2328 c80 -122 105 -214 104 -393 0 -137 -9 -196 -49 -335 -45
-154 -115 -310 -209 -464 -191 -315 -270 -598 -232 -833 25 -151 85 -251 174
-288 59 -25 191 -20 278 10 65 23 79 24 141 16 65 -10 159 -3 209 14 97 33
202 117 250 200 51 89 59 129 66 345 4 149 11 226 25 280 15 62 18 114 18 300
0 250 -7 301 -70 490 -30 91 -123 285 -143 300 -4 3 -18 21 -31 40 -70 102
-227 231 -350 287 -41 19 -177 63 -195 63 -4 0 3 -15 14 -32z m251 -1130 c0
-89 -1 -93 -27 -114 -26 -21 -28 -28 -32 -114 -3 -97 8 -143 40 -161 14 -7 19
-21 19 -52 0 -46 14 -69 36 -60 9 3 14 21 14 49 0 37 5 49 33 73 31 28 32 32
35 119 4 98 -10 145 -48 157 -18 6 -20 15 -20 94 0 48 3 90 6 93 8 8 103 -15
148 -37 60 -29 150 -118 179 -178 44 -88 49 -137 45 -415 l-3 -258 -37 -75
c-85 -172 -248 -259 -427 -229 -128 21 -232 102 -294 229 l-32 66 0 305 0 305
30 60 c36 72 114 152 179 184 41 20 120 47 149 50 4 1 7 -40 7 -91z m54 -154
c12 -11 16 -36 16 -93 0 -65 -3 -81 -20 -96 -19 -17 -21 -17 -40 0 -17 15 -20
31 -20 96 0 57 4 82 16 93 8 9 19 16 24 16 5 0 16 -7 24 -16z"/>
</g>
</svg>
